<?xml version="1.0" encoding="UTF-8" standalone="no"?><!DOCTYPE svg PUBLIC "-//W3C//DTD SVG 1.1//EN" "http://www.w3.org/Graphics/SVG/1.1/DTD/svg11.dtd"><svg width="100%" height="100%" viewBox="0 0 1283 300" version="1.1" xmlns="http://www.w3.org/2000/svg" xmlns:xlink="http://www.w3.org/1999/xlink" xml:space="preserve" xmlns:serif="http://www.serif.com/" style="fill-rule:evenodd;clip-rule:evenodd;stroke-linecap:round;stroke-linejoin:round;stroke-miterlimit:1.5;"><path d="M1.5,186.216l1280,0" style="stroke:#000;stroke-width:3px;"/><g><path d="M84.433,14.216c5.659,99.811 1.142,167.331 17,224c16.351,34.142 50.42,52.079 102,54c29.312,-1.002 54.971,-8.735 76,-25c16.842,-17.874 24.967,-36.259 27,-55c2.614,-16.659 4.007,-34.188 5,-52c-3.118,-2.575 29.781,-11.818 66,-29c10.056,-5.55 13.44,-14.318 17,-23c0.59,-11.6 -0.773,-23.268 -4,-35c-4.574,-17.097 -9.621,-26.676 -15,-31c-5.625,-6.426 -12.335,-9.977 -20,-11c-16.813,-0.348 -31.858,-0.895 -33,-3c-1.672,0.855 -3.717,-5.334 -6,-16c-37.905,-13.006 -130.068,-16.505 -194.093,-6.203c-12.813,2.062 -25.427,4.929 -37.907,8.203" style="fill:#fafafa;"/><path d="M317.433,57.216l-3,58c1.091,9.158 14.012,9.697 30,8c7.663,-0.696 15.683,-4.19 24,-10c6.105,-9.494 9.834,-19.516 7,-31c-0.387,-8.637 -3.117,-17.534 -11,-27c-7.36,-6.673 -17.421,-7.873 -29,-6l-18,8Z" style="fill:#2962ff;"/><path d="M94.433,15.05c10.075,-5.274 32.778,-8.602 66,-8.834l38,0l68,0.803c17.688,0.506 34.098,1.91 44,6.425c-4.459,3.76 -14.061,5.542 -26,6.425c-29.637,2.036 -60.676,3.22 -95,2.41c-25.632,0.158 -46.97,0.137 -65,-1.607c-17.441,-2.419 -28.533,-3.798 -30,-5.622Z" style="fill:#ffcdd2;"/></g><g><path d="M522.433,21.555c5.659,99.812 1.142,167.332 17,224c16.351,34.142 50.42,52.079 102,54c29.312,-1.002 54.971,-8.735 76,-25c16.842,-17.874 24.967,-36.258 27,-55c2.614,-16.658 4.007,-34.187 5,-52c-3.118,-2.574 29.781,-11.817 66,-29c10.056,-5.55 13.44,-14.318 17,-23c0.59,-11.6 -0.773,-23.268 -4,-35c-4.574,-17.097 -9.621,-26.676 -15,-31c-5.625,-6.426 -12.335,-9.976 -20,-11c-16.813,-0.348 -31.858,-0.894 -33,-3c-1.672,0.855 -3.717,-5.333 -6,-16c-37.905,-13.006 -130.068,-16.505 -194.093,-6.203c-12.813,2.062 -25.427,4.929 -37.907,8.203"/><path d="M755.433,64.555l-3,58c1.091,9.159 14.012,9.697 30,8c7.663,-0.696 15.683,-4.189 24,-10c6.105,-9.493 9.834,-19.516 7,-31c-0.387,-8.637 -3.117,-17.533 -11,-27c-7.36,-6.673 -17.421,-7.873 -29,-6l-18,8Z" style="fill:#2962ff;"/><path d="M532.433,22.39c10.075,-5.275 32.778,-8.602 66,-8.835l38,0l68,0.803c17.688,0.507 34.098,1.91 44,6.425c-4.459,3.76 -14.061,5.542 -26,6.425c-29.637,2.036 -60.676,3.22 -95,2.41c-25.632,0.159 -46.97,0.137 -65,-1.606c-17.441,-2.419 -28.533,-3.799 -30,-5.622Z" style="fill:#ffa726;"/></g><g><path d="M946.366,14.216c5.659,99.811 1.142,167.331 17,224c16.351,34.142 50.42,52.079 102,54c29.312,-1.002 54.971,-8.735 76,-25c16.842,-17.874 24.967,-36.259 27,-55c2.614,-16.659 4.007,-34.188 5,-52c-3.118,-2.575 29.781,-11.818 66,-29c10.056,-5.55 13.44,-14.318 17,-23c0.59,-11.6 -0.773,-23.268 -4,-35c-4.574,-17.097 -9.621,-26.676 -15,-31c-5.625,-6.426 -12.335,-9.977 -20,-11c-16.813,-0.348 -31.857,-0.895 -33,-3c-1.672,0.855 -3.717,-5.334 -6,-16c-37.905,-13.006 -130.068,-16.505 -194.093,-6.203c-12.813,2.062 -25.427,4.929 -37.907,8.203" style="fill:#e0e0e0;"/><path d="M1179.37,57.216l-3,58c1.091,9.158 14.012,9.697 30,8c7.663,-0.696 15.683,-4.19 24,-10c6.105,-9.494 9.834,-19.516 7,-31c-0.387,-8.637 -3.117,-17.534 -11,-27c-7.36,-6.673 -17.421,-7.873 -29,-6l-18,8Z" style="fill:#2962ff;"/><path d="M956.366,15.05c10.075,-5.274 32.778,-8.602 66,-8.834l38,0l68,0.803c17.688,0.506 34.098,1.91 44,6.425c-4.459,3.76 -14.061,5.542 -26,6.425c-29.637,2.036 -60.676,3.22 -95,2.41c-25.632,0.158 -46.97,0.137 -65,-1.607c-17.441,-2.419 -28.533,-3.798 -30,-5.622Z" style="fill:#795548;"/></g></svg>