<?xml version="1.0" encoding="UTF-8" standalone="no"?><!DOCTYPE svg PUBLIC "-//W3C//DTD SVG 1.1//EN" "http://www.w3.org/Graphics/SVG/1.1/DTD/svg11.dtd"><svg width="100%" height="100%" viewBox="0 0 311 293" version="1.1" xmlns="http://www.w3.org/2000/svg" xmlns:xlink="http://www.w3.org/1999/xlink" xml:space="preserve" xmlns:serif="http://www.serif.com/" style="fill-rule:evenodd;clip-rule:evenodd;stroke-linejoin:round;stroke-miterlimit:1.41421;"><g><path d="M0,14.216c5.659,99.811 1.142,167.331 17,224c16.351,34.142 50.42,52.079 102,54c29.312,-1.002 54.971,-8.735 76,-25c16.842,-17.874 24.967,-36.259 27,-55c2.614,-16.659 4.007,-34.188 5,-52c-3.118,-2.575 29.781,-11.818 66,-29c10.056,-5.55 13.44,-14.318 17,-23c0.59,-11.6 -0.773,-23.268 -4,-35c-4.574,-17.097 -9.621,-26.676 -15,-31c-5.625,-6.426 -12.335,-9.977 -20,-11c-16.814,-0.348 -31.858,-0.895 -33,-3c-1.672,0.855 -3.717,-5.334 -6,-16c-37.905,-13.006 -130.068,-16.505 -194.093,-6.203c-12.813,2.062 -25.427,4.929 -37.907,8.203"/><path d="M233,57.216l-3,58c1.091,9.158 14.012,9.697 30,8c7.663,-0.696 15.683,-4.19 24,-10c6.105,-9.494 9.834,-19.516 7,-31c-0.387,-8.637 -3.117,-17.534 -11,-27c-7.36,-6.673 -17.421,-7.873 -29,-6l-18,8Z" style="fill:#fff;"/><path d="M10,15.05c10.075,-5.274 32.778,-8.602 66,-8.834l38,0l68,0.803c17.688,0.506 34.098,1.91 44,6.425c-4.459,3.76 -14.061,5.542 -26,6.425c-29.637,2.036 -60.676,3.22 -95,2.41c-25.632,0.158 -46.97,0.137 -65,-1.607c-17.441,-2.419 -28.533,-3.798 -30,-5.622Z" style="fill:#ffa726;"/></g></svg>